<?xml version="1.0" encoding="UTF-8"?>
<svg xmlns="http://www.w3.org/2000/svg" xmlns:xlink="http://www.w3.org/1999/xlink" width="16px" height="16px" viewBox="0 0 16 16" version="1.1">
<g id="surface1">
<path style=" stroke:none;fill-rule:nonzero;fill:rgb(78.431374%,12.54902%,18.431373%);fill-opacity:1;" d="M 1.117188 7.980469 C 1.101562 14.023438 8.480469 17.125 12.78125 12.929688 C 12.8125 12.90625 12.777344 12.859375 12.742188 12.878906 C 11.871094 13.398438 10.863281 13.6875 9.824219 13.6875 C 6.6875 13.691406 4.15625 11.183594 4.121094 8.050781 C 4.039062 5.179688 7.058594 3.265625 9.609375 4.453125 C 9.644531 4.46875 9.671875 4.421875 9.644531 4.398438 C 6.5 1.351562 1.164062 3.613281 1.113281 7.984375 "/>
<path style=" stroke:none;fill-rule:nonzero;fill:rgb(13.725491%,12.156863%,12.54902%);fill-opacity:1;" d="M 14.882812 7.972656 C 14.898438 1.929688 7.519531 -1.171875 3.21875 3.023438 C 3.1875 3.050781 3.222656 3.09375 3.257812 3.074219 C 4.128906 2.554688 5.136719 2.269531 6.175781 2.269531 C 9.3125 2.261719 11.84375 4.769531 11.878906 7.902344 C 11.960938 10.773438 8.941406 12.6875 6.390625 11.5 C 6.355469 11.484375 6.328125 11.53125 6.355469 11.554688 C 9.5 14.601562 14.835938 12.34375 14.886719 7.96875 "/>
</g>
</svg>
